<svg width="229" height="146" viewBox="0 0 229 146" fill="none" xmlns="http://www.w3.org/2000/svg">
<g clip-path="url(#clip0_52_2)">
<path d="M48.5936 34.3691L57.2543 46.1919C57.2543 46.1919 64.6384 49.2969 73.2685 55.5314L71.2027 58.7563C71.2027 58.7563 56.9581 52.9234 53.3128 50.4589L46.6563 40.0233L48.5936 34.3691Z" fill="#A0616A"/>
<path d="M78.4474 61.2577C79.2739 60.0482 78.2926 57.9392 76.2555 56.5472C74.2184 55.1552 71.8969 55.0072 71.0704 56.2167C70.2439 57.4263 71.2253 59.5352 73.2624 60.9273C75.2995 62.3193 77.6209 62.4673 78.4474 61.2577Z" fill="#A0616A"/>
<path d="M44.3603 24.2763L47.1946 23.4724C47.1946 23.4724 48.8444 23.4755 49.7752 25.096C50.706 26.7165 57.2962 41.1654 56.9838 41.7251C56.6714 42.2848 56.2354 42.4085 56.7951 42.7209C57.3548 43.0332 57.8673 42.8749 57.4858 43.3429C57.1043 43.811 57.6315 44.8393 57.6315 44.8393L50.3611 50.2034L44.3603 24.2763Z" fill="#AA4700"/>
<path d="M33.3639 143.086L36.8217 143.086L38.4666 129.749L33.3632 129.749L33.3639 143.086Z" fill="#A0616A"/>
<path d="M45.2109 143.008C45.3185 143.189 45.3753 143.775 45.3753 143.985C45.3753 144.634 44.8499 145.159 44.2017 145.159H33.4932C33.051 145.159 32.6926 144.801 32.6926 144.358V143.913C32.6926 143.913 32.1628 142.573 33.2535 140.921C33.2535 140.921 34.609 142.214 36.6345 140.189L37.2318 139.107L41.5555 142.269L43.952 142.564C44.4763 142.628 44.9412 142.554 45.2109 143.008Z" fill="#2F2E41"/>
<path d="M45.879 139.717L49.2891 140.289L53.121 127.409L48.0881 126.563L45.879 139.717Z" fill="#A0616A"/>
<path d="M57.5752 141.602C57.6513 141.799 57.6104 142.385 57.5755 142.593C57.4681 143.232 56.8628 143.664 56.2236 143.556L45.6631 141.782C45.2271 141.709 44.9329 141.296 45.0062 140.86L45.0801 140.42C45.0801 140.42 44.7797 139.011 46.1289 137.563C46.1289 137.563 47.2514 139.063 49.5845 137.401L50.3528 136.433L54.0928 140.267L56.4073 140.955C56.9137 141.106 57.3845 141.109 57.5752 141.602Z" fill="#2F2E41"/>
<path d="M52.9673 71.2795C52.9673 71.2795 57.6131 76.7185 57.6131 81.7042C57.6131 86.6899 57.7264 102.352 57.7264 102.352C57.7264 102.352 55.0069 126.802 54.327 128.842C53.6471 130.882 53.3072 134.281 53.3072 134.281L46.7351 132.695C46.7351 132.695 45.8286 109.692 48.5481 104.253L41.976 85.6701L39.7097 138.247H32.0803C32.0803 138.247 28.1519 110.599 30.1915 103.347C30.1915 103.347 25.659 75.6987 26.7921 74.1123C27.9253 72.5259 52.9673 71.2795 52.9673 71.2795Z" fill="#2F2E41"/>
<path d="M36.0837 17.1163L42.2026 17.5695L44.2422 20.9689C44.2422 20.9689 49.0013 23.0085 49.6812 25.9546C50.3611 28.9007 50.5877 63.3476 50.5877 63.3476L53.9871 68.3334L53.7604 72.6392L26.5655 73.999V69.8591L24.0727 64.934C24.0727 64.934 26.7922 25.5014 27.472 25.2747C28.1519 25.0481 33.3643 21.4221 33.3643 21.4221L36.0837 17.1163Z" fill="#AA4700"/>
<path d="M38.853 16.273C43.1085 16.273 46.5583 12.8232 46.5583 8.56774C46.5583 4.31226 43.1085 0.862518 38.853 0.862518C34.5976 0.862518 31.1478 4.31226 31.1478 8.56774C31.1478 12.8232 34.5976 16.273 38.853 16.273Z" fill="#A0616A"/>
<path d="M45.0077 2.37021C44.6157 1.25823 43.528 0.583622 42.3492 0.6099C42.2992 0.611 42.2493 0.610538 42.1998 0.608507C41.6062 0.584235 41.0364 0.381478 40.4543 0.262531C39.3694 0.0408246 38.2255 0.115052 37.1784 0.475084C36.8529 0.587001 36.527 0.727733 36.1828 0.727771C35.8386 0.727819 35.4637 0.539089 35.3798 0.205315C35.3599 0.507509 35.34 0.809686 35.3201 1.11186C35.2081 0.867287 35.0961 0.622695 34.9841 0.378106L34.7598 1.3535L34.0412 0.538319C34.1055 0.897623 33.896 1.25976 33.6124 1.48948C33.3287 1.71921 32.9784 1.84628 32.6426 1.9894C31.1934 2.60715 29.8326 3.70087 29.4151 5.21994C29.1512 6.17968 29.2892 7.19826 29.429 8.18373C29.5526 9.05493 29.687 9.95623 30.1605 10.6978C30.4641 11.1732 30.9016 11.5733 31.0865 12.1062C31.2587 12.603 31.1935 13.1717 31.4386 13.6368C31.6848 14.1041 32.1929 14.3684 32.6903 14.5459C33.1876 14.7235 33.7163 14.8491 34.1447 15.158C34.5729 15.467 35.07 16.357 36.0032 16.3091L36.3044 15.7433C36.6142 15.4908 35.4676 15.691 35.4556 15.2915C35.4437 14.892 36.8353 14.6452 36.638 14.2976C36.3356 13.7646 35.9264 13.3007 35.5855 12.7913C35.187 12.1956 34.8735 11.4996 35.011 10.7725C35.0645 10.4897 35.1969 10.2225 35.3985 10.0171C35.9798 9.42477 36.6279 9.6851 37.2578 9.76982C37.6919 9.82827 38.2104 9.7608 38.4358 9.38519C38.6995 8.94575 38.4056 8.38672 38.4415 7.87551C38.4797 7.33381 38.89 6.88963 39.3367 6.5808C39.7833 6.27198 40.2905 6.04698 40.6923 5.68172C41.0941 5.31643 41.3803 4.74577 41.2051 4.23178C43.1097 3.43884 43.4013 3.36384 45.4069 3.84741C45.3113 3.34586 45.1775 2.85169 45.0077 2.37021Z" fill="#2F2E41"/>
<path d="M12.4788 100.919V77.5313C12.4788 76.8899 12.7522 76.2759 13.2289 75.8467C13.7057 75.4176 14.3448 75.21 14.9829 75.2773C20.8936 74.4821 26.4605 74.8603 31.5057 77.0195C32.0772 77.0195 32.5421 77.4844 32.5421 78.0559V101.526C32.5421 102.097 32.0772 102.562 31.5057 102.562C25.9521 101.26 20.0946 101.599 14.1215 102.562C13.2157 102.562 12.4788 101.825 12.4788 100.919Z" fill="#E6E6E6"/>
<path d="M12.4788 103.001V79.3661C12.4788 78.1163 13.4955 77.0996 14.7453 77.0996C20.3974 75.6207 25.9843 75.6182 31.5057 77.0996C32.0772 77.0996 32.5421 77.5645 32.5421 78.1359V101.365C32.5421 101.936 32.0785 102.4 31.5082 102.402C26.064 101.455 20.2321 102.377 14.1215 104.644C13.2157 104.644 12.4788 103.907 12.4788 103.001Z" fill="#F2F2F2"/>
<path d="M25.5303 86.8669H20.2451C18.347 86.8669 16.8028 85.3228 16.8028 83.4247C16.8028 81.5265 18.347 79.9822 20.2451 79.9822H25.5303C27.4285 79.9822 28.9728 81.5266 28.9728 83.4247C28.9728 85.3228 27.4285 86.8669 25.5303 86.8669Z" fill="#E6E6E6"/>
<path d="M30.3742 40.4446L30.1722 52.647C30.1722 52.647 29.5265 62.1568 27.9231 72.8588L24.101 73.1027C24.101 73.1027 24.5713 56.3928 24.4 51.9959L24.6702 42.23L30.3742 40.4446Z" fill="#A0616A"/>
<path d="M26.3731 80.4226C27.8372 80.3728 28.9562 78.3335 28.8724 75.8676C28.7886 73.4017 27.5337 71.4431 26.0696 71.4929C24.6055 71.5426 23.4865 73.582 23.5704 76.0478C23.6542 78.5137 24.909 80.4723 26.3731 80.4226Z" fill="#A0616A"/>
<path d="M30.3148 24.9095L27.3707 25.0167C27.3707 25.0167 25.8019 25.5274 25.4149 27.3557C25.0279 29.184 22.3154 48.1051 22.7849 48.5415C23.2543 48.978 23.7073 48.9615 23.2708 49.4309C22.8344 49.9004 22.298 49.9074 22.805 50.2354C23.312 50.5633 23.1268 51.7039 23.1268 51.7039L31.2697 51.127L30.3148 24.9095Z" fill="#AA4700"/>
<path d="M224.564 133.929H146.229C145.775 133.929 145.325 133.86 144.892 133.723L144.845 133.704C120.317 121.514 99.287 114.861 80.5538 113.364L80.4825 113.35C78.6293 112.764 77.3844 111.064 77.3844 109.121V4.43999C77.3844 3.0106 78.0458 1.70623 79.1988 0.861511C80.352 0.0167889 81.7949 -0.220241 83.1583 0.210422L145.085 19.7981C145.456 19.9154 145.841 19.9748 146.229 19.9748H224.564C227.01 19.9748 229 21.9648 229 24.4108V129.493C229 131.94 227.01 133.929 224.564 133.929ZM145.108 133.119C145.472 133.231 145.849 133.288 146.229 133.288H224.564C226.656 133.288 228.358 131.586 228.358 129.493V24.4108C228.358 22.3186 226.656 20.6165 224.564 20.6165H146.229C145.775 20.6165 145.325 20.5471 144.892 20.41L82.9647 0.822345C81.7986 0.453249 80.5644 0.656597 79.5781 1.37912C78.5917 2.1018 78.026 3.2174 78.026 4.43999V109.121C78.026 110.771 79.0757 112.216 80.6421 112.728C99.4432 114.237 120.531 120.907 145.108 133.119Z" fill="#3F3D56"/>
<path d="M148.321 129.176C169.68 121.618 193.507 122.485 218.821 128.422C221.998 129.168 225.045 126.775 225.045 123.511V27.8626C225.045 25.5399 223.462 23.5091 221.205 22.9574C194.502 16.4274 169.56 15.2259 147.578 22.9855C145.968 23.5539 144.181 23.2459 142.822 22.2116C124.299 8.11168 105.342 1.04213 85.8195 3.14125C83.2655 3.41586 81.3391 5.59241 81.3391 8.16109V104.852C81.3391 107.441 83.298 109.606 85.8731 109.874C106.886 112.059 126.195 118.683 144.153 128.826C145.424 129.544 146.944 129.663 148.321 129.176Z" fill="#F2F2F2"/>
<path d="M147.635 123.812C146.181 123.812 144.748 123.412 143.485 122.628C128.404 113.262 111.974 107.791 94.6504 106.366C90.5891 106.031 87.4076 102.567 87.4076 98.479V15.8889C87.4076 11.6499 90.695 8.17655 94.8918 7.9815C107.504 7.39339 122.819 13.018 143.084 25.6762C144.798 26.7467 146.883 27.0645 148.804 26.5494C168.063 21.3796 188.941 21.2285 212.63 26.0877C216.307 26.8422 218.977 30.1064 218.977 33.8496V114.465C218.977 116.898 217.883 119.157 215.975 120.664C214.053 122.182 211.58 122.727 209.19 122.158C186.78 116.824 167.537 117.209 150.36 123.337C149.468 123.655 148.547 123.812 147.635 123.812ZM96.6923 8.58183C96.0953 8.58183 95.5064 8.5953 94.9216 8.62256C91.068 8.80163 88.0493 11.9933 88.0493 15.8889V98.479C88.0493 102.236 90.972 105.419 94.703 105.726C112.129 107.16 128.655 112.663 143.824 122.083C145.711 123.256 148.015 123.492 150.145 122.732C167.441 116.562 186.804 116.17 209.338 121.533C211.536 122.056 213.81 121.557 215.577 120.161C217.33 118.776 218.335 116.7 218.335 114.465V33.8496C218.335 30.4097 215.881 27.4098 212.501 26.7163C188.912 21.8773 168.131 22.0255 148.97 27.1692C146.878 27.7303 144.609 27.3849 142.744 26.2204C123.539 14.2246 108.832 8.58183 96.6923 8.58183Z" fill="white"/>
<path d="M146.178 27.0286L145.536 27.0346L146.429 123.665L147.071 123.659L146.178 27.0286Z" fill="white"/>
<path d="M93.6631 20.6517L93.4616 21.2608L138.39 36.1269L138.592 35.5179L93.6631 20.6517Z" fill="#3F3D56"/>
<path d="M93.6631 32.5447L93.4616 33.1538L138.39 48.0199L138.592 47.4109L93.6631 32.5447Z" fill="#3F3D56"/>
<path d="M93.6631 44.4376L93.4616 45.0467L138.39 59.9128L138.592 59.3037L93.6631 44.4376Z" fill="#3F3D56"/>
<path d="M93.6631 56.3304L93.4616 56.9395L138.39 71.8057L138.592 71.1966L93.6631 56.3304Z" fill="#3F3D56"/>
<path d="M210.84 36.1624H156.991V36.804H210.84V36.1624Z" fill="#3F3D56"/>
<path d="M210.84 47.3946H156.991V48.0363H210.84V47.3946Z" fill="#3F3D56"/>
<path d="M210.84 58.6266H156.991V59.2683H210.84V58.6266Z" fill="#3F3D56"/>
<path d="M210.84 69.859H156.991V70.5007H210.84V69.859Z" fill="#3F3D56"/>
<path d="M210.84 81.091H156.991V81.7327H210.84V81.091Z" fill="#3F3D56"/>
<path d="M210.84 92.3234H156.991V92.9651H210.84V92.3234Z" fill="#3F3D56"/>
<path d="M17.4086 140.384C16.7458 140.425 16.3795 139.602 16.881 139.122L16.9309 138.923C16.9243 138.907 16.9177 138.892 16.911 138.876C16.2407 137.277 13.9689 137.288 13.3043 138.889C12.7144 140.31 11.9634 141.733 11.7784 143.235C11.6955 143.898 11.7328 144.574 11.88 145.225C10.4977 142.205 9.77037 138.908 9.77037 135.593C9.77037 134.76 9.81597 133.927 9.90921 133.096C9.9859 132.416 10.0916 131.74 10.2284 131.071C10.9681 127.453 12.57 124.007 14.8806 121.128C15.9914 120.521 16.9177 119.572 17.4772 118.434C17.6782 118.024 17.8357 117.582 17.9103 117.133C17.7839 117.149 17.4337 115.224 17.529 115.106C17.3529 114.839 17.0376 114.706 16.8452 114.445C15.8883 113.148 14.57 113.374 13.8818 115.137C12.4116 115.879 12.3974 117.11 13.2995 118.293C13.8734 119.046 13.9522 120.065 14.4558 120.871C14.404 120.937 14.3501 121.002 14.2983 121.068C13.3483 122.287 12.5266 123.596 11.8339 124.972C12.0297 123.443 11.7406 121.601 11.2479 120.413C10.687 119.06 9.63569 117.92 8.70989 116.751C7.59784 115.346 5.31748 115.959 5.12156 117.74C5.11966 117.757 5.11782 117.774 5.11601 117.792C5.25352 117.869 5.38824 117.952 5.51983 118.039C6.27045 118.535 6.01103 119.699 5.12164 119.836L5.1015 119.839C5.15125 120.334 5.23621 120.826 5.36053 121.308C4.17284 125.902 6.73699 127.574 10.3983 127.65C10.4791 127.691 10.5578 127.732 10.6387 127.772C10.2677 128.816 9.97137 129.888 9.75172 130.974C9.55485 131.933 9.41807 132.903 9.34141 133.877C9.24607 135.106 9.25437 136.341 9.35799 137.568L9.35177 137.524C9.0886 136.173 8.355 134.911 7.28983 134.036C5.70306 132.733 3.46126 132.253 1.74941 131.205C0.925377 130.701 -0.13056 131.353 0.0132555 132.308L0.0202563 132.354C0.275145 132.457 0.523812 132.577 0.764201 132.712C0.901715 132.79 1.03643 132.872 1.16803 132.959C1.91864 133.456 1.65923 134.619 0.769838 134.757L0.749683 134.76C0.735181 134.762 0.722741 134.764 0.708259 134.766C1.14551 135.804 1.75475 136.768 2.51735 137.599C3.25999 141.608 6.44963 141.989 9.86155 140.821H9.86362C10.2366 142.446 10.7817 144.033 11.4821 145.546H17.2638C17.2845 145.482 17.3031 145.415 17.3218 145.351C16.7871 145.384 16.2484 145.353 15.722 145.256C16.151 144.729 16.5799 144.199 17.0089 143.673C17.0192 143.662 17.0275 143.652 17.0358 143.641C17.2534 143.372 17.4731 143.105 17.6907 142.835L17.6908 142.835C17.7044 142.008 17.6051 141.184 17.4086 140.384Z" fill="#F2F2F2"/>
<path d="M82.0752 145.563C82.0752 145.775 81.9052 145.945 81.6934 145.945H0.426788C0.21504 145.945 0.0449829 145.775 0.0449829 145.563C0.0449829 145.351 0.21504 145.181 0.426788 145.181H81.6934C81.9052 145.181 82.0752 145.351 82.0752 145.563Z" fill="#CCCCCC"/>
<path d="M213.101 125.267C217.177 125.267 220.481 121.963 220.481 117.887C220.481 113.812 217.177 110.508 213.101 110.508C209.026 110.508 205.722 113.812 205.722 117.887C205.722 121.963 209.026 125.267 213.101 125.267Z" fill="#AA4700"/>
<path d="M216.557 117.609L211.979 114.965C211.765 114.842 211.497 114.996 211.497 115.243V117.566H210.124C209.947 117.566 209.803 117.71 209.803 117.887C209.803 118.064 209.947 118.208 210.124 118.208H211.497V120.531C211.497 120.778 211.765 120.932 211.979 120.809L216.557 118.165C216.771 118.042 216.771 117.733 216.557 117.609Z" fill="white"/>
<path d="M108.018 97.086C108.305 93.7975 109.671 90.6559 111.856 88.1836C113.985 85.7753 116.894 84.1233 120.032 83.4503C121.783 83.0746 123.597 83.0012 125.371 83.2543C125.796 83.3149 125.784 83.9891 125.355 83.9278C122.337 83.4971 119.216 84.0234 116.504 85.4173C113.723 86.8461 111.498 89.1699 110.123 91.9722C109.337 93.5747 108.847 95.3237 108.692 97.1018C108.654 97.5322 107.98 97.5189 108.018 97.086Z" fill="white"/>
<path d="M124.624 80.5504L129.81 83.1088C129.998 83.2019 130.029 83.5091 129.869 83.6416L124.96 87.6995C124.628 87.9741 124.16 87.4888 124.495 87.212L129.404 83.1541L129.463 83.6868L124.278 81.1284C123.888 80.9363 124.238 80.3598 124.624 80.5504Z" fill="white"/>
</g>
<defs>
<clipPath id="clip0_52_2">
<rect width="229" height="145.945" fill="white"/>
</clipPath>
</defs>
</svg>
