<svg width="212" height="120" viewBox="0 0 212 120" fill="none" xmlns="http://www.w3.org/2000/svg">
<g clip-path="url(#clip0_157_96)">
<path d="M15.9501 119.367L15.727 118.955C18.7185 117.337 22.4416 115.323 24.3862 112.019C26.3031 108.762 26.3461 104.339 24.4984 100.476C22.926 97.1885 20.0375 94.2431 16.1454 91.9583C15.3776 91.5076 14.5717 91.0805 13.7923 90.6674C11.9084 89.669 9.96042 88.6365 8.35415 87.1718C6.14183 85.1543 4.46793 81.7687 5.71555 78.753C6.12586 77.7905 6.79783 76.9623 7.65517 76.3624C8.51251 75.7626 9.52086 75.4151 10.5657 75.3595L10.5922 75.828C9.63496 75.8787 8.71113 76.1968 7.92554 76.7461C7.13995 77.2954 6.52405 78.0538 6.14774 78.9355C4.98838 81.7379 6.57901 84.918 8.67027 86.8252C10.2326 88.2498 12.154 89.2681 14.012 90.2529C14.7958 90.6683 15.6064 91.0979 16.3829 91.5538C20.3561 93.8861 23.3087 96.9013 24.9216 100.274C26.8358 104.275 26.7855 108.867 24.7905 112.257C22.7796 115.674 18.9929 117.722 15.9501 119.367Z" fill="#F1F1F1"/>
<path d="M13.5389 77.8321C15.806 77.8321 17.6438 76.9395 17.6438 75.8383C17.6438 74.7372 15.806 73.8445 13.5389 73.8445C11.2719 73.8445 9.43408 74.7372 9.43408 75.8383C9.43408 76.9395 11.2719 77.8321 13.5389 77.8321Z" fill="#F1F1F1"/>
<path d="M16.8229 90.9676C19.0899 90.9676 20.9277 90.075 20.9277 88.9739C20.9277 87.8727 19.0899 86.9801 16.8229 86.9801C14.5558 86.9801 12.718 87.8727 12.718 88.9739C12.718 90.075 14.5558 90.9676 16.8229 90.9676Z" fill="#F1F1F1"/>
<path d="M9.31677 93.0787C11.5838 93.0787 13.4216 92.1861 13.4216 91.0849C13.4216 89.9838 11.5838 89.0912 9.31677 89.0912C7.04972 89.0912 5.21191 89.9838 5.21191 91.0849C5.21191 92.1861 7.04972 93.0787 9.31677 93.0787Z" fill="#F1F1F1"/>
<path d="M21.045 104.103C23.3121 104.103 25.1499 103.211 25.1499 102.109C25.1499 101.008 23.3121 100.116 21.045 100.116C18.778 100.116 16.9402 101.008 16.9402 102.109C16.9402 103.211 18.778 104.103 21.045 104.103Z" fill="#F1F1F1"/>
<path d="M29.2548 104.103C31.5218 104.103 33.3596 103.211 33.3596 102.109C33.3596 101.008 31.5218 100.116 29.2548 100.116C26.9877 100.116 25.1499 101.008 25.1499 102.109C25.1499 103.211 26.9877 104.103 29.2548 104.103Z" fill="#F1F1F1"/>
<path d="M212 3.61917H79.9888V66.2608H212V3.61917Z" fill="#E6E6E6"/>
<path d="M208.225 8.9908H83.7637V61.2547H208.225V8.9908Z" fill="white"/>
<path d="M211.944 0H79.9324V5.60823H211.944V0Z" fill="#AA4700"/>
<path d="M84.1001 3.63353C84.6742 3.63353 85.1396 3.16814 85.1396 2.59406C85.1396 2.01998 84.6742 1.5546 84.1001 1.5546C83.5261 1.5546 83.0607 2.01998 83.0607 2.59406C83.0607 3.16814 83.5261 3.63353 84.1001 3.63353Z" fill="white"/>
<path d="M88.0456 3.63353C88.6196 3.63353 89.085 3.16814 89.085 2.59406C89.085 2.01998 88.6196 1.5546 88.0456 1.5546C87.4715 1.5546 87.0061 2.01998 87.0061 2.59406C87.0061 3.16814 87.4715 3.63353 88.0456 3.63353Z" fill="white"/>
<path d="M91.9912 3.63353C92.5653 3.63353 93.0307 3.16814 93.0307 2.59406C93.0307 2.01998 92.5653 1.5546 91.9912 1.5546C91.4172 1.5546 90.9518 2.01998 90.9518 2.59406C90.9518 3.16814 91.4172 3.63353 91.9912 3.63353Z" fill="white"/>
<path d="M139.432 21.394C139.298 21.394 139.17 21.4471 139.076 21.5415C138.982 21.6359 138.928 21.764 138.928 21.8976C138.928 22.0311 138.982 22.1592 139.076 22.2537C139.17 22.3481 139.298 22.4012 139.432 22.4012H167.065C167.198 22.4012 167.326 22.3481 167.421 22.2537C167.515 22.1592 167.568 22.0311 167.568 21.8976C167.568 21.764 167.515 21.6359 167.421 21.5415C167.326 21.4471 167.198 21.394 167.065 21.394H139.432Z" fill="#E6E6E6"/>
<path d="M139.432 24.4158C139.299 24.4161 139.171 24.4693 139.077 24.5637C138.983 24.6581 138.93 24.786 138.93 24.9194C138.93 25.0527 138.983 25.1807 139.077 25.2751C139.171 25.3695 139.299 25.4227 139.432 25.4229H153.539C153.672 25.4227 153.8 25.3695 153.895 25.2751C153.989 25.1807 154.042 25.0527 154.042 24.9194C154.042 24.786 153.989 24.6581 153.895 24.5637C153.8 24.4693 153.672 24.4161 153.539 24.4158H139.432Z" fill="#E6E6E6"/>
<path d="M138.737 39.0416C138.603 39.0416 138.475 39.0947 138.381 39.1891C138.286 39.2835 138.233 39.4116 138.233 39.5452C138.233 39.6787 138.286 39.8068 138.381 39.9013C138.475 39.9957 138.603 40.0488 138.737 40.0488H190.548C190.681 40.0488 190.809 39.9957 190.904 39.9013C190.998 39.8068 191.051 39.6787 191.051 39.5452C191.051 39.4116 190.998 39.2835 190.904 39.1891C190.809 39.0947 190.681 39.0416 190.548 39.0416H138.737Z" fill="#E6E6E6"/>
<path d="M138.737 42.0634C138.603 42.0636 138.475 42.1168 138.381 42.2112C138.287 42.3056 138.234 42.4336 138.234 42.5669C138.234 42.7003 138.287 42.8282 138.381 42.9226C138.475 43.017 138.603 43.0702 138.737 43.0705H177.022C177.155 43.0702 177.283 43.017 177.378 42.9226C177.472 42.8282 177.525 42.7003 177.525 42.5669C177.525 42.4336 177.472 42.3056 177.378 42.2112C177.283 42.1168 177.155 42.0636 177.022 42.0634H138.737Z" fill="#E6E6E6"/>
<path d="M138.737 45.0168C138.603 45.017 138.475 45.0702 138.381 45.1646C138.287 45.259 138.234 45.387 138.234 45.5203C138.234 45.6537 138.287 45.7816 138.381 45.876C138.475 45.9704 138.603 46.0236 138.737 46.0239H190.548C190.681 46.0236 190.809 45.9704 190.903 45.876C190.997 45.7816 191.05 45.6537 191.05 45.5203C191.05 45.387 190.997 45.259 190.903 45.1646C190.809 45.0702 190.681 45.017 190.548 45.0168H138.737Z" fill="#E6E6E6"/>
<path d="M138.737 48.0385C138.603 48.0388 138.475 48.092 138.381 48.1864C138.287 48.2808 138.234 48.4087 138.234 48.5421C138.234 48.6755 138.287 48.8034 138.381 48.8978C138.475 48.9922 138.603 49.0454 138.737 49.0457H177.022C177.155 49.0454 177.283 48.9922 177.378 48.8978C177.472 48.8034 177.525 48.6755 177.525 48.5421C177.525 48.4087 177.472 48.2808 177.378 48.1864C177.283 48.092 177.155 48.0388 177.022 48.0385H138.737Z" fill="#E6E6E6"/>
<path d="M111.65 41.0853C114.071 41.0853 116.035 39.1221 116.035 36.7003C116.035 34.2785 114.071 32.3153 111.65 32.3153C109.228 32.3153 107.265 34.2785 107.265 36.7003C107.265 39.1221 109.228 41.0853 111.65 41.0853Z" fill="#A0616A"/>
<path d="M110.261 33.1923C110.261 33.1923 112.307 33.7405 113.367 33.9597C114.427 34.179 114.317 33.5577 114.317 33.5577C114.317 33.5577 115.706 33.7404 115.632 33.5943C115.559 33.4481 116.217 32.6807 115.45 31.8037C114.682 30.9267 114.902 30.269 114.902 30.269H114.244L114.061 30.0132H113.038C113.038 30.0132 111.907 29.0213 109.897 29.3136C107.887 29.6059 105.51 30.3786 105.291 31.5845C105.261 31.7481 105.222 31.9298 105.177 32.1217C104.627 34.4419 105.795 36.6127 107.006 38.6666C107.304 39.1714 108.743 40.2721 108.707 39.5169C108.67 38.7617 107.411 37.0657 108.288 36.9561C109.165 36.8465 110.663 34.6175 110.261 33.1923Z" fill="#2F2E41"/>
<path d="M109.162 50.8762C108.315 50.8085 107.476 50.6706 106.652 50.4639L106.699 49.5894L107.082 42.6365L107.086 42.5831H114.81L116.022 48.9851L116.186 49.8489C115.866 49.9733 115.543 50.0906 115.212 50.1937C115.208 50.1937 115.208 50.1973 115.205 50.1973C114.746 50.3394 114.281 50.4639 113.811 50.5669C113.187 50.7015 112.556 50.7989 111.92 50.8584C111.429 50.9072 110.935 50.9309 110.442 50.9295C110.015 50.9295 109.585 50.9118 109.162 50.8762Z" fill="#AA4700"/>
<path d="M104.196 49.6392C103.876 49.5006 103.567 49.3513 103.261 49.1949L103.13 49.1273C103.041 49.0811 102.948 49.0313 102.86 48.9816C102.739 48.914 102.621 48.8465 102.508 48.779C102.397 48.715 102.284 48.6474 102.174 48.5799C102.166 48.5763 102.163 48.5728 102.156 48.5728C101.772 48.3275 101.395 48.0751 101.032 47.8014C100.972 47.7552 100.912 47.709 100.851 47.6628L100.787 46.6391L100.88 46.5822L107.083 42.6365L107.168 42.5831L107.175 42.5796L108.049 42.5831V45.8392C108.543 46.5537 108.878 48.0502 109.084 50.0089C109.112 50.2897 109.137 50.5776 109.162 50.8762C108.316 50.8085 107.476 50.6706 106.652 50.4639C106.564 50.4461 106.478 50.4248 106.389 50.3999C105.871 50.2643 105.361 50.1006 104.861 49.9093C104.708 49.8525 104.559 49.792 104.409 49.7316L104.395 49.7245C104.331 49.6961 104.26 49.6676 104.196 49.6392Z" fill="#2F2E41"/>
<path d="M102.86 48.9816C102.739 48.914 102.621 48.8465 102.508 48.779C102.397 48.715 102.284 48.6474 102.173 48.5799C102.166 48.5763 102.163 48.5728 102.156 48.5728C101.772 48.3275 101.395 48.0751 101.032 47.8014C100.972 47.7552 100.912 47.709 100.851 47.6628C100.823 47.6379 100.794 47.6166 100.762 47.5917C100.535 47.4175 100.314 47.2362 100.101 47.0443C100.091 47.0372 100.083 47.0265 100.073 47.0194C100.288 46.8538 100.53 46.7252 100.787 46.6391L101.04 46.7137L102.838 47.254L102.849 47.9827L102.86 48.9816Z" fill="#2F2E41"/>
<path d="M118.006 48.9922C117.899 49.0491 117.793 49.106 117.686 49.1593C117.661 49.1735 117.64 49.1842 117.619 49.1949C117.476 49.266 117.338 49.337 117.196 49.4046C117.192 49.4081 117.185 49.4081 117.185 49.4117C117.178 49.4152 117.167 49.4188 117.16 49.4224C116.84 49.5752 116.517 49.7174 116.186 49.8489C115.866 49.9733 115.543 50.0906 115.212 50.1937C115.208 50.1937 115.208 50.1973 115.205 50.1973C114.746 50.3394 114.281 50.4639 113.811 50.5669C113.806 50.2749 113.845 49.9838 113.925 49.7032L113.929 49.6534L114.235 44.7053L113.826 42.5831L114.999 42.409L121.45 45.8819C121.45 45.8819 120.74 46.5928 117.821 48.1071C117.563 48.241 117.942 48.6865 118.006 48.9922Z" fill="#2F2E41"/>
<path d="M111.842 50.0053C111.38 50.048 110.911 50.0693 110.442 50.0693C109.987 50.0693 109.535 50.0515 109.084 50.0089C109.112 50.2897 109.137 50.5776 109.162 50.8762C109.585 50.9118 110.015 50.9295 110.442 50.9295C110.936 50.9309 111.429 50.9072 111.92 50.8584C112.556 50.7989 113.187 50.7016 113.811 50.5669C113.806 50.275 113.845 49.9838 113.925 49.7032L113.929 49.6534C113.243 49.8204 112.545 49.938 111.842 50.0053ZM125.275 30.0565C124.524 27.8987 123.311 25.9308 121.721 24.29C120.132 22.6491 118.203 21.3748 116.07 20.5558C113.937 19.7369 111.651 19.3931 109.372 19.5483C107.092 19.7036 104.874 20.3542 102.872 21.4548C100.87 22.5554 99.1319 24.0795 97.7792 25.9208C96.4266 27.762 95.4918 29.8762 95.0402 32.1159C94.5886 34.3555 94.6309 36.6667 95.1643 38.8883C95.6976 41.11 96.7091 43.1885 98.1283 44.979C98.2705 45.1567 98.4163 45.3345 98.5655 45.5051C98.5798 45.5193 98.5869 45.53 98.5975 45.5406C98.9645 45.9639 99.3549 46.3662 99.767 46.7457C99.8666 46.8381 99.9695 46.9305 100.073 47.0194C100.083 47.0265 100.091 47.0372 100.101 47.0443C100.314 47.2362 100.535 47.4175 100.762 47.5917C100.794 47.6166 100.823 47.6379 100.851 47.6628C100.912 47.709 100.972 47.7552 101.032 47.8014C101.395 48.0751 101.772 48.3275 102.156 48.5728C102.163 48.5728 102.166 48.5763 102.173 48.5799C102.284 48.6474 102.397 48.7149 102.508 48.7789C102.621 48.8465 102.739 48.914 102.86 48.9815C102.948 49.0313 103.041 49.0811 103.13 49.1273L103.261 49.1948C103.567 49.3512 103.876 49.5005 104.196 49.6392C104.26 49.6676 104.331 49.696 104.395 49.7245L104.409 49.7316C104.559 49.792 104.708 49.8524 104.861 49.9093C105.361 50.1005 105.871 50.2643 106.389 50.3999C106.478 50.4248 106.564 50.4461 106.652 50.4639C107.476 50.6706 108.316 50.8085 109.162 50.8762C109.585 50.9118 110.015 50.9295 110.442 50.9295C110.936 50.9309 111.429 50.9072 111.92 50.8584C112.556 50.7989 113.187 50.7016 113.811 50.5669C114.281 50.4639 114.746 50.3394 115.205 50.1973C115.208 50.1973 115.208 50.1937 115.212 50.1937C115.543 50.0906 115.866 49.9733 116.186 49.8489C116.517 49.7174 116.84 49.5752 117.16 49.4224C117.167 49.4188 117.178 49.4152 117.185 49.4117C117.185 49.4081 117.192 49.4081 117.196 49.4046C117.338 49.337 117.476 49.2659 117.619 49.1948C117.64 49.1842 117.661 49.1735 117.686 49.1593C117.793 49.106 117.899 49.0491 118.006 48.9922C118.013 48.9887 118.017 48.9851 118.024 48.9816C118.305 48.8252 118.582 48.6616 118.856 48.4875C118.93 48.4413 119.005 48.3951 119.08 48.3417C119.19 48.2742 119.296 48.1995 119.399 48.1249C119.538 48.0289 119.677 47.9294 119.812 47.8263C119.857 47.7975 119.9 47.7654 119.94 47.7303C120.27 47.4815 120.59 47.2185 120.896 46.9412C123.214 44.8755 124.868 42.1687 125.647 39.1632C126.427 36.1577 126.297 32.9884 125.275 30.0565ZM120.629 46.0241C120.245 46.3861 119.841 46.7278 119.421 47.0478C119.328 47.1189 119.232 47.19 119.137 47.254C119.044 47.3251 118.952 47.3926 118.856 47.4566C118.774 47.5135 118.692 47.5704 118.607 47.6237C118.6 47.6308 118.589 47.6343 118.582 47.6415C118.521 47.6841 118.458 47.7232 118.397 47.7623C118.209 47.8796 118.013 47.9969 117.821 48.1071C117.775 48.132 117.732 48.1604 117.686 48.1853C117.661 48.1995 117.636 48.2138 117.608 48.228C117.501 48.2884 117.395 48.3417 117.288 48.3986C117.274 48.4093 117.256 48.4128 117.242 48.4235C117.236 48.4243 117.232 48.4268 117.228 48.4306C117.153 48.4697 117.078 48.5052 117.004 48.5408C116.94 48.5728 116.879 48.6048 116.815 48.6332C116.556 48.7576 116.289 48.8749 116.023 48.9851C115.742 49.0989 115.457 49.202 115.169 49.2979C115.098 49.3228 115.024 49.3512 114.949 49.3726C114.611 49.4792 114.274 49.5752 113.929 49.6534C113.243 49.8204 112.545 49.938 111.842 50.0053C111.38 50.048 110.911 50.0693 110.442 50.0693C109.987 50.0693 109.535 50.0515 109.084 50.0089C108.278 49.9352 107.481 49.7949 106.699 49.5894C106.67 49.5823 106.638 49.5752 106.61 49.5681C105.968 49.4008 105.34 49.187 104.729 48.9282C104.697 48.914 104.662 48.9033 104.633 48.8891C104.598 48.8749 104.566 48.8643 104.537 48.85C104.502 48.8358 104.47 48.8216 104.438 48.8074C104.171 48.6901 103.912 48.5621 103.652 48.4306L103.531 48.3666C103.3 48.2457 103.073 48.1213 102.849 47.9827C102.771 47.94 102.689 47.8903 102.611 47.8405C102.522 47.7872 102.433 47.7303 102.348 47.6734C102.326 47.6592 102.305 47.645 102.284 47.6308C102.085 47.4957 101.882 47.3606 101.69 47.2149C101.555 47.1153 101.424 47.0194 101.292 46.9163C101.207 46.8523 101.121 46.7848 101.04 46.7137C100.986 46.6746 100.933 46.6284 100.88 46.5822C100.809 46.5217 100.737 46.4613 100.666 46.3973C100.556 46.3084 100.453 46.2089 100.353 46.1165C99.9532 45.7476 99.5746 45.356 99.2196 44.9434C99.0988 44.8084 98.9849 44.6733 98.8749 44.5311C98.8492 44.5031 98.8254 44.4734 98.8037 44.4422C97.0141 42.1831 95.9207 39.452 95.6569 36.582C95.3931 33.7121 95.9702 30.8274 97.318 28.2798C98.6657 25.7323 100.726 23.6321 103.247 22.2354C105.768 20.8387 108.641 20.2059 111.515 20.4143C114.39 20.6226 117.142 21.6631 119.435 23.4087C121.728 25.1543 123.464 27.5296 124.43 30.2448C125.396 32.96 125.552 35.8978 124.877 38.6997C124.202 41.5017 122.726 44.0466 120.629 46.0241Z" fill="#3F3D56"/>
<path d="M38.3362 116.507L41.2119 116.507L42.5799 105.415L38.3357 105.415L38.3362 116.507Z" fill="#A0616A"/>
<path d="M37.6027 115.568L43.266 115.568H43.2662C44.2234 115.568 45.1413 115.948 45.8181 116.625C46.495 117.302 46.8752 118.22 46.8753 119.177V119.294L37.6028 119.295L37.6027 115.568Z" fill="#2F2E41"/>
<path d="M49.126 116.507L52.0017 116.507L53.3697 105.415L49.1255 105.415L49.126 116.507Z" fill="#A0616A"/>
<path d="M48.3925 115.568L54.0557 115.568H54.056C55.0132 115.568 55.9311 115.948 56.6079 116.625C57.2848 117.302 57.665 118.22 57.6651 119.177V119.294L48.3926 119.295L48.3925 115.568Z" fill="#2F2E41"/>
<path d="M29.6105 72.6771C29.8459 72.4251 30.0231 72.1245 30.1297 71.7966C30.2364 71.4687 30.2698 71.1214 30.2277 70.7791C30.1856 70.4369 30.0689 70.108 29.886 69.8157C29.703 69.5234 29.4582 69.2748 29.1688 69.0874L31.1668 60.9469L27.0638 62.4089L25.7954 69.9151C25.5128 70.4222 25.4259 71.0154 25.5514 71.5822C25.6769 72.1491 26.0059 72.6502 26.4762 72.9907C26.9464 73.3311 27.5253 73.4872 28.1029 73.4294C28.6806 73.3717 29.217 73.104 29.6105 72.6771Z" fill="#9E616A"/>
<path d="M60.1367 71.9734C59.9014 71.7214 59.7241 71.4208 59.6175 71.0929C59.5109 70.765 59.4774 70.4177 59.5196 70.0754C59.5617 69.7332 59.6783 69.4043 59.8613 69.112C60.0442 68.8197 60.2891 68.5711 60.5785 68.3837L58.5804 60.2432L62.6835 61.7053L63.9519 69.2114C64.2345 69.7185 64.3213 70.3117 64.1959 70.8786C64.0704 71.4454 63.7414 71.9465 63.2711 72.287C62.8008 72.6274 62.222 72.7836 61.6443 72.7258C61.0667 72.668 60.5302 72.4003 60.1367 71.9734Z" fill="#9E616A"/>
<path d="M33.394 66.9709L37.38 113.664L43.2122 113.132L45.5463 77.0449L47.6241 91.334L48.0402 114.032L53.3179 113.68L56.2485 89.2619L55.5296 65.6139L35.4939 63.585L33.394 66.9709Z" fill="#2F2E41"/>
<path d="M44.3588 24.4809C47.6992 24.4809 50.4072 21.773 50.4072 18.4326C50.4072 15.0921 47.6992 12.3842 44.3588 12.3842C41.0184 12.3842 38.3104 15.0921 38.3104 18.4326C38.3104 21.773 41.0184 24.4809 44.3588 24.4809Z" fill="#A0616A"/>
<path d="M42.4435 13.5938C42.4435 13.5938 45.2661 14.3499 46.7277 14.6523C48.1894 14.9547 48.0382 14.0979 48.0382 14.0979C48.0382 14.0979 49.9536 14.3499 49.8527 14.1483C49.7519 13.9466 50.6592 12.8882 49.6007 11.6785C48.5423 10.4688 48.8447 9.56157 48.8447 9.56157H47.9374L47.6854 9.20875H46.2741C46.2741 9.20875 44.7138 7.84054 41.9416 8.24375C39.1694 8.64697 35.891 9.71278 35.5886 11.3761C35.5476 11.6017 35.4936 11.8523 35.4309 12.1171C34.6728 15.3174 36.2835 18.3117 37.954 21.1447C38.3646 21.841 40.3505 23.3592 40.2997 22.3175C40.2489 21.2759 38.512 18.9366 39.7217 18.7854C40.9314 18.6342 42.9979 15.5596 42.4435 13.5938Z" fill="#2F2E41"/>
<path d="M38.0648 26.5471H48.7167L56.2485 66.3231C56.2485 66.3231 49.6822 66.8846 45.9292 68.292C42.1761 69.6994 35.9371 65.0771 35.9371 65.0771L38.0648 26.5471Z" fill="#AA4700"/>
<path d="M39.3946 31.0389V26.5471L38.1885 26.5397L29.3767 32.1423L31.2888 62.8379C31.2888 62.8379 33.5518 73.0784 36.9844 72.9722C40.4169 72.866 43.0636 36.359 39.3946 31.0389Z" fill="#2F2E41"/>
<path d="M32.2072 32.9902L29.3767 32.1422C29.3767 32.1422 27.2813 32.7556 27.2813 34.8667C27.2813 36.9778 25.476 66.9709 25.476 66.9709L31.2112 67.4778L32.4417 52.2244L32.2072 32.9902Z" fill="#2F2E41"/>
<path d="M47.923 29.4718L47.3588 26.5471L48.9786 26.3051L54.8427 28.6508C54.8427 28.6508 60.1203 67.2364 57.7747 68.4093C55.4291 69.5821 53.8453 68.6734 53.8453 68.6734C53.8453 68.6734 46.1302 40.2148 47.4958 36.3679L47.923 29.4718Z" fill="#2F2E41"/>
<path d="M50.7377 29.2372L51.7385 28.8016C51.7385 28.8016 54.6759 27.346 56.3425 30.2854C58.0091 33.2248 63.8732 66.0636 63.8732 66.0636L59.0482 66.9709L55.4409 55.1527L50.7377 29.2372Z" fill="#2F2E41"/>
<path d="M89.6032 119.427H0.234563C0.172353 119.427 0.112691 119.402 0.0687018 119.358C0.0247127 119.314 0 119.254 0 119.192C0 119.13 0.0247127 119.07 0.0687018 119.026C0.112691 118.982 0.172353 118.958 0.234563 118.958H89.6032C89.6654 118.958 89.7251 118.982 89.7691 119.026C89.813 119.07 89.8378 119.13 89.8378 119.192C89.8378 119.254 89.813 119.314 89.7691 119.358C89.7251 119.402 89.6654 119.427 89.6032 119.427Z" fill="#CACACA"/>
</g>
<defs>
<clipPath id="clip0_157_96">
<rect width="212" height="119.427" fill="white"/>
</clipPath>
</defs>
</svg>
