<svg width="247" height="159" viewBox="0 0 247 159" fill="none" xmlns="http://www.w3.org/2000/svg">
<g clip-path="url(#clip0_214_331)">
<path d="M88.3248 94.1767C96.7633 79.3323 112.86 67.9344 129.9 69.0324C117.331 82.7006 110.001 100.374 109.209 118.926C108.929 126.082 109.363 134.07 104.612 139.428C101.655 142.762 97.1366 144.377 92.6938 144.715C88.2507 145.054 83.8086 144.251 79.4249 143.452L78.3615 143.778C77.9566 126.708 79.8862 109.021 88.3248 94.1767Z" fill="#F0F0F0"/>
<path d="M129.925 69.3898C117.325 75.4557 106.58 85.5865 99.9846 97.9418C98.5586 100.613 97.3446 103.447 96.815 106.443C96.2852 109.441 96.6552 112.294 97.6791 115.141C98.6151 117.744 99.8739 120.298 100.161 123.083C100.463 126.018 99.3834 128.763 97.4391 130.941C95.0603 133.607 91.8656 135.258 88.6854 136.765C85.1543 138.438 81.4602 140.119 78.9592 143.241C78.6562 143.62 78.0869 143.127 78.3895 142.75C82.7408 137.318 90.1891 136.297 95.3541 131.921C97.7642 129.88 99.5736 127.099 99.4594 123.841C99.3595 120.993 98.0637 118.358 97.0932 115.731C96.0741 112.972 95.5659 110.198 95.9314 107.257C96.3052 104.249 97.411 101.361 98.7624 98.6655C101.81 92.5855 105.981 87.0037 110.759 82.1785C116.251 76.6321 122.65 72.066 129.681 68.6776C130.117 68.4681 130.358 69.1816 129.925 69.3898Z" fill="white"/>
<path d="M101.916 93.8127C99.9847 92.4002 98.6179 90.3471 98.0603 88.0199C97.5026 85.6928 97.7903 83.2432 98.872 81.1086C99.0923 80.6774 99.7727 80.9996 99.552 81.4313C98.5411 83.4172 98.2733 85.699 98.7971 87.865C99.3208 90.031 100.602 91.9384 102.408 93.243C102.8 93.5269 102.306 94.095 101.916 93.8127Z" fill="white"/>
<path d="M97.0306 113.884C101.871 113.177 106.267 110.671 109.342 106.866C109.646 106.489 110.216 106.981 109.912 107.358C106.704 111.311 102.124 113.91 97.0857 114.634C96.6054 114.703 96.5529 113.952 97.0306 113.884Z" fill="white"/>
<path d="M116.622 77.5581C117.256 78.2604 118.054 78.7943 118.945 79.1119C119.835 79.4295 120.791 79.5209 121.726 79.3778C122.205 79.303 122.257 80.054 121.781 80.1284C120.748 80.2816 119.692 80.1794 118.707 79.8307C117.722 79.482 116.837 78.8973 116.13 78.1278C116.058 78.0609 116.013 77.9687 116.006 77.8702C115.999 77.7716 116.029 77.674 116.091 77.5971C116.157 77.522 116.249 77.4758 116.349 77.4685C116.448 77.4612 116.546 77.4934 116.622 77.5581Z" fill="white"/>
<path d="M163.803 115.861C163.506 115.916 163.208 115.971 162.907 116.032C158.906 116.795 154.974 117.882 151.149 119.283C150.851 119.386 150.551 119.496 150.257 119.607C141.078 123.079 132.623 128.224 125.322 134.782C122.419 137.394 119.719 140.224 117.245 143.246C113.829 147.419 110.458 152.216 105.994 154.937C105.531 155.226 105.051 155.486 104.557 155.716L78.8423 145.05C78.796 144.997 78.747 144.949 78.7005 144.895L77.6543 144.516C77.771 144.351 77.8956 144.183 78.0122 144.018C78.0796 143.922 78.1525 143.829 78.2198 143.733C78.2665 143.67 78.3135 143.607 78.352 143.547C78.3675 143.526 78.3832 143.505 78.3963 143.49C78.4348 143.43 78.4769 143.379 78.5129 143.325C79.2066 142.382 79.9082 141.442 80.6175 140.506C80.62 140.5 80.62 140.5 80.6282 140.496C86.0514 133.373 92.1169 126.641 99.0115 121.043C99.219 120.875 99.4286 120.7 99.6479 120.537C102.77 118.031 106.091 115.784 109.579 113.819C111.492 112.749 113.458 111.777 115.47 110.906C120.672 108.665 126.194 107.257 131.833 106.733C143.076 105.689 154.527 108.252 163.15 115.315C163.37 115.495 163.585 115.674 163.803 115.861Z" fill="#F0F0F0"/>
<path d="M163.61 116.163C149.897 113.42 135.219 115.04 122.514 120.934C119.767 122.208 117.092 123.74 114.865 125.813C112.637 127.888 111.215 130.389 110.318 133.279C109.498 135.92 108.966 138.717 107.518 141.114C105.992 143.64 103.477 145.181 100.613 145.75C97.1094 146.446 93.5643 145.841 90.118 145.129C86.2915 144.339 82.3295 143.457 78.453 144.444C77.9833 144.564 77.8252 143.828 78.2942 143.709C85.0387 141.992 91.6005 145.661 98.3588 145.277C101.512 145.098 104.631 143.967 106.501 141.297C108.137 138.962 108.688 136.079 109.495 133.397C110.343 130.58 111.607 128.06 113.669 125.932C115.779 123.754 118.4 122.115 121.102 120.776C127.196 117.757 133.887 115.811 140.608 114.835C148.331 113.713 156.19 113.92 163.844 115.448C164.318 115.543 164.081 116.257 163.61 116.163Z" fill="white"/>
<path d="M126.543 118.8C125.851 116.51 125.996 114.047 126.952 111.854C127.907 109.66 129.612 107.877 131.761 106.824C132.196 106.612 132.546 107.279 132.109 107.491C130.107 108.468 128.519 110.129 127.633 112.173C126.747 114.218 126.621 116.512 127.278 118.642C127.421 119.104 126.684 119.261 126.543 118.8Z" fill="white"/>
<path d="M110.557 131.884C114.848 134.234 119.866 134.88 124.612 133.694C125.082 133.576 125.241 134.312 124.771 134.429C119.83 135.655 114.609 134.972 110.149 132.517C109.724 132.283 110.135 131.651 110.557 131.884Z" fill="white"/>
<path d="M148.071 114.676C148.154 115.618 148.47 116.525 148.99 117.315C149.51 118.105 150.218 118.753 151.051 119.202C151.478 119.431 151.068 120.062 150.643 119.834C149.725 119.334 148.944 118.617 148.367 117.746C147.791 116.874 147.436 115.875 147.335 114.835C147.317 114.737 147.337 114.637 147.391 114.554C147.444 114.471 147.528 114.411 147.624 114.388C147.721 114.367 147.823 114.386 147.907 114.44C147.99 114.494 148.049 114.579 148.071 114.676Z" fill="white"/>
<path d="M114.819 133.458C111.218 116.045 106.716 110.239 106.716 110.239L104.997 108.906L102.928 107.299L102.938 107.093L102.448 106.926L102.333 106.837L102.144 106.692L102.114 106.724L102.049 106.791L92.6911 103.61L80.8185 99.5769L75.3207 92.4308C74.4253 91.267 73.2725 90.3263 71.9527 89.6826C70.633 89.0389 69.182 88.7095 67.7137 88.7204L50.1555 88.8503C47.7814 88.8679 45.4998 89.7729 43.7592 91.3874L32.2185 102.092L14.2358 110.681L14.2055 110.65L14.0166 110.785L11.2382 112.114L11.3528 112.711L9.6331 113.951C9.6331 113.951 5.13155 119.353 1.53029 135.556C0.614172 139.678 0.163225 148.522 0.000457411 159.419C-0.0077184 159.971 0.0937805 160.518 0.29905 161.03C0.504319 161.541 0.809265 162.007 1.19616 162.4C1.58305 162.793 2.04416 163.105 2.55269 163.318C3.06123 163.531 3.60703 163.64 4.15836 163.641H100.207L112.195 163.641C112.746 163.64 113.292 163.531 113.8 163.318C114.308 163.105 114.769 162.794 115.156 162.401C115.543 162.009 115.848 161.544 116.053 161.033C116.259 160.521 116.361 159.974 116.353 159.424C116.194 147.565 115.744 137.928 114.819 133.458Z" fill="#3F3D56"/>
<path d="M127.143 15.1852C123.406 15.1852 119.822 16.6697 117.18 19.312C114.537 21.9544 113.053 25.5382 113.053 29.2751C113.053 33.012 114.537 36.5958 117.18 39.2381C119.822 41.8805 123.406 43.3649 127.143 43.3649H232.146C235.882 43.3649 239.466 41.8805 242.109 39.2381C244.751 36.5958 246.235 33.012 246.235 29.2751C246.235 25.5382 244.751 21.9544 242.109 19.312C239.466 16.6697 235.882 15.1852 232.146 15.1852H127.143Z" fill="#E5E5E5"/>
<path d="M127.143 18.0367C124.162 18.0367 121.304 19.2208 119.196 21.3284C117.088 23.436 115.904 26.2945 115.904 29.2751C115.904 32.2557 117.088 35.1142 119.196 37.2218C121.304 39.3294 124.162 40.5134 127.143 40.5134H232.146C235.126 40.5134 237.985 39.3294 240.092 37.2218C242.2 35.1142 243.384 32.2557 243.384 29.2751C243.384 26.2945 242.2 23.436 240.092 21.3284C237.985 19.2208 235.126 18.0367 232.146 18.0367H127.143Z" fill="white"/>
<path d="M61.6919 82.1242C74.396 82.1242 84.6948 71.8254 84.6948 59.1213C84.6948 46.4171 74.396 36.1183 61.6919 36.1183C48.9877 36.1183 38.689 46.4171 38.689 59.1213C38.689 71.8254 48.9877 82.1242 61.6919 82.1242Z" fill="#9E616A"/>
<path d="M55.8074 80.9978C55.7092 80.7815 55.6112 80.5644 55.5134 80.3465C55.5511 80.3477 55.5884 80.3531 55.626 80.3541L55.8074 80.9978Z" fill="#2F2E41"/>
<path d="M38.0493 37.1644C39.2127 36.2363 40.5725 35.3824 42.06 35.4304C43.5474 35.4783 45.0558 36.8218 44.7476 38.2777C47.4798 33.4402 51.8286 29.7196 57.0307 27.7689C62.2328 25.8183 67.9557 25.7623 73.195 27.6108C76.8919 28.9151 80.5174 31.5245 81.3666 35.3517C81.5846 36.3342 81.6314 37.4114 82.2449 38.2092C83.0183 39.2151 84.4981 39.4426 85.7166 39.0888C85.7288 39.0852 85.741 39.0816 85.7531 39.078C85.959 39.0077 86.1812 39.0008 86.391 39.0582C86.6008 39.1155 86.7886 39.2345 86.93 39.3998C87.0715 39.565 87.1601 39.7689 87.1844 39.9851C87.2087 40.2012 87.1676 40.4197 87.0664 40.6122L86.0203 42.5631C87.3389 42.8571 88.7091 42.8279 90.014 42.4782C90.2308 42.4213 90.4598 42.433 90.6697 42.5114C90.8797 42.5899 91.0602 42.7314 91.1865 42.9165C91.3128 43.1016 91.3787 43.3213 91.3753 43.5454C91.3718 43.7694 91.2991 43.987 91.1671 44.1681C87.7179 48.9037 81.9554 51.9617 76.0748 51.9257C71.8953 51.9003 67.6728 50.4598 63.6052 51.4209C62.0316 51.7928 60.5612 52.5122 59.3018 53.5264C58.0425 54.5406 57.0263 55.8239 56.3276 57.2821C55.629 58.7403 55.2656 60.3364 55.2643 61.9533C55.263 63.5703 55.6236 65.167 56.3199 66.6263C55.0703 65.2595 52.6547 65.5831 51.3765 66.9232C50.0983 68.2634 49.7674 70.2635 49.8962 72.111C50.0931 74.9366 51.2002 77.5992 52.3673 80.1905C42.5821 79.8825 33.327 73.0184 30.2117 63.7344C27.0833 54.4116 30.3619 43.2968 38.0493 37.1644Z" fill="#2F2E41"/>
<path opacity="0.2" d="M22.6409 128.201L29.0927 163.304L32.9639 163.641L22.6409 128.201Z" fill="black"/>
<path opacity="0.2" d="M93.7088 125.553L87.257 163.278L83.3857 163.641L93.7088 125.553Z" fill="black"/>
<path d="M43.5522 25.3506C42.3152 25.8671 41.0244 25.301 40.4831 24.0046C39.9334 22.6884 40.4468 21.3522 41.7036 20.8274C42.9606 20.3025 44.2284 20.87 44.7869 22.2074C45.337 23.5248 44.8293 24.8173 43.5522 25.3506ZM41.1826 18.2366L40.199 18.6473C39.9533 18.7487 39.6785 18.7542 39.4289 18.6626C39.1793 18.5711 38.9732 18.3892 38.8513 18.153L38.8027 18.0579C37.7444 16.1492 37.6232 13.8295 38.4444 11.1668C39.2052 8.77824 39.5212 7.09838 38.8857 5.5765C38.151 3.81693 36.5821 3.26575 34.5813 4.0642C33.8054 4.38823 33.5584 4.38306 32.9478 4.98884C32.8149 5.12222 32.6566 5.22748 32.4822 5.29835C32.3078 5.36921 32.121 5.40423 31.9327 5.40132C31.7508 5.39918 31.5711 5.36042 31.4045 5.28735C31.2378 5.21428 31.0876 5.1084 30.9628 4.97602C30.7222 4.7209 30.5875 4.38402 30.5857 4.03341C30.5839 3.68279 30.7153 3.34457 30.9532 3.08704C31.9796 2.01258 33.2176 1.16254 34.5891 0.590576C38.8878 -1.20442 41.0518 1.44564 42.0421 3.81719C43.0107 6.13684 42.4658 8.28909 41.5904 11.0765C40.8567 13.3926 40.8995 15.1088 41.7328 16.8153C41.793 16.9443 41.8265 17.0842 41.8313 17.2264C41.836 17.3687 41.812 17.5105 41.7606 17.6432C41.7092 17.776 41.6315 17.8969 41.5322 17.9989C41.4329 18.1009 41.3139 18.1817 41.1826 18.2366Z" fill="#AA4700"/>
<path d="M150.336 35.995H129.445C129.378 35.9955 129.312 35.9828 129.251 35.9577C129.19 35.9326 129.134 35.8956 129.087 35.8488C129.039 35.8021 129.002 35.7464 128.977 35.6852C128.951 35.6239 128.938 35.5582 128.938 35.4918C128.938 35.4254 128.951 35.3597 128.977 35.2984C129.002 35.2371 129.039 35.1815 129.087 35.1348C129.134 35.088 129.19 35.051 129.251 35.0259C129.312 35.0008 129.378 34.9881 129.445 34.9886H150.336C150.469 34.9895 150.596 35.0429 150.69 35.1372C150.784 35.2314 150.836 35.3589 150.836 35.4918C150.836 35.6247 150.784 35.7521 150.69 35.8464C150.596 35.9407 150.469 35.9941 150.336 35.995Z" fill="#AA4700"/>
<path d="M176.839 36.1627H155.947C155.881 36.1632 155.815 36.1505 155.753 36.1254C155.692 36.1003 155.636 36.0633 155.589 36.0166C155.542 35.9698 155.505 35.9142 155.479 35.8529C155.454 35.7916 155.44 35.7259 155.44 35.6595C155.44 35.5931 155.454 35.5274 155.479 35.4662C155.505 35.4049 155.542 35.3492 155.589 35.3025C155.636 35.2557 155.692 35.2187 155.753 35.1936C155.815 35.1685 155.881 35.1559 155.947 35.1563H176.839C176.905 35.1559 176.971 35.1685 177.032 35.1936C177.094 35.2187 177.15 35.2557 177.197 35.3025C177.244 35.3492 177.281 35.4049 177.307 35.4662C177.332 35.5274 177.345 35.5931 177.345 35.6595C177.345 35.7259 177.332 35.7916 177.307 35.8529C177.281 35.9142 177.244 35.9698 177.197 36.0166C177.15 36.0633 177.094 36.1003 177.032 36.1254C176.971 36.1505 176.905 36.1632 176.839 36.1627Z" fill="#AA4700"/>
<path d="M203.341 36.3305H182.45C182.317 36.3296 182.19 36.2761 182.096 36.1819C182.002 36.0876 181.95 35.9601 181.95 35.8273C181.95 35.6944 182.002 35.5669 182.096 35.4726C182.19 35.3784 182.317 35.325 182.45 35.324H203.341C203.408 35.3236 203.473 35.3363 203.535 35.3614C203.596 35.3865 203.652 35.4234 203.699 35.4702C203.746 35.517 203.784 35.5726 203.809 35.6339C203.835 35.6952 203.848 35.7609 203.848 35.8273C203.848 35.8936 203.835 35.9593 203.809 36.0206C203.784 36.0819 203.746 36.1375 203.699 36.1843C203.652 36.2311 203.596 36.2681 203.535 36.2931C203.473 36.3182 203.408 36.3309 203.341 36.3305Z" fill="#AA4700"/>
<path d="M229.843 36.4982H208.952C208.819 36.4973 208.692 36.4439 208.598 36.3496C208.504 36.2553 208.452 36.1279 208.452 35.995C208.452 35.8621 208.504 35.7346 208.598 35.6404C208.692 35.5461 208.819 35.4927 208.952 35.4918H229.843C229.976 35.4927 230.103 35.5461 230.197 35.6404C230.291 35.7346 230.343 35.8621 230.343 35.995C230.343 36.1279 230.291 36.2553 230.197 36.3496C230.103 36.4439 229.976 36.4973 229.843 36.4982Z" fill="#AA4700"/>
<path d="M139.845 31.3639C141.989 31.3639 143.728 29.6255 143.728 27.481C143.728 25.3366 141.989 23.5981 139.845 23.5981C137.7 23.5981 135.962 25.3366 135.962 27.481C135.962 29.6255 137.7 31.3639 139.845 31.3639Z" fill="#AA4700"/>
<path d="M166.507 31.3639C168.652 31.3639 170.39 29.6255 170.39 27.481C170.39 25.3366 168.652 23.5981 166.507 23.5981C164.363 23.5981 162.624 25.3366 162.624 27.481C162.624 29.6255 164.363 31.3639 166.507 31.3639Z" fill="#AA4700"/>
<path d="M193.169 31.3639C195.314 31.3639 197.052 29.6255 197.052 27.481C197.052 25.3366 195.314 23.5981 193.169 23.5981C191.025 23.5981 189.287 25.3366 189.287 27.481C189.287 29.6255 191.025 31.3639 193.169 31.3639Z" fill="#AA4700"/>
<path d="M219.832 31.3639C221.976 31.3639 223.715 29.6255 223.715 27.481C223.715 25.3366 221.976 23.5981 219.832 23.5981C217.687 23.5981 215.949 25.3366 215.949 27.481C215.949 29.6255 217.687 31.3639 219.832 31.3639Z" fill="#AA4700"/>
</g>
<defs>
<clipPath id="clip0_214_331">
<rect width="246.235" height="163.641" fill="white"/>
</clipPath>
</defs>
</svg>
